<?xml version="1.0" encoding="UTF-8"?><svg id="Livello_1" xmlns="http://www.w3.org/2000/svg" viewBox="0 0 94 94"><circle cx="47" cy="47" r="47" fill="#f5f5f5"/><g><g><path d="m8.651,60.951l.003-4.998,1.044-.002.956.006c.542.003.986-.143,1.331-.429.342-.284.515-.637.515-1.061,0-.562-.467-1.274-1.405-2.136-.322-.292-.564-.526-.736-.698-.665-.677-1.154-1.371-1.476-2.088-.317-.716-.476-1.49-.476-2.316,0-1.703.594-3.102,1.78-4.196,1.188-1.099,2.675-1.621,4.556-1.61l3.234.018-.005,4.501-1.145.003-.943.002c-.621.002-1.096.13-1.428.39-.329.258-.497.623-.497,1.101,0,.535.454,1.159,1.357,1.875.361.297.639.531.837.703.731.637,1.291,1.371,1.674,2.202.383.827.573,1.712.573,2.653,0,1.893-.625,3.38-1.877,4.457-1.254,1.08-2.939,1.604-5.159,1.619l-1.226.008-1.487-.002h0Z" fill="#007bad" fill-rule="evenodd"/><path d="m10.141,61.251l-1.788-.002.004-5.594,1.342-.002.958.006h.014c.458,0,.836-.121,1.124-.36.274-.228.407-.5.407-.832,0-.326-.227-.922-1.309-1.916-.325-.295-.57-.533-.745-.707-.686-.697-1.202-1.429-1.537-2.177-.333-.752-.502-1.572-.502-2.438,0-1.781.631-3.267,1.875-4.416,1.242-1.148,2.826-1.716,4.76-1.689l3.531.019-.006,5.096-2.385.005c-.551.002-.97.111-1.244.326-.258.202-.383.485-.383.866,0,.299.216.827,1.244,1.641.368.302.647.539.847.711.763.664,1.352,1.438,1.75,2.303.398.859.6,1.794.6,2.778,0,1.977-.667,3.552-1.98,4.683-1.304,1.123-3.055,1.676-5.352,1.691l-1.226.008Zm-1.19-.598h1.189s1.223-.006,1.223-.006c2.149-.014,3.774-.521,4.966-1.547,1.177-1.013,1.773-2.436,1.773-4.231,0-.897-.184-1.747-.545-2.528-.363-.788-.901-1.495-1.599-2.103-.196-.17-.472-.403-.831-.698-.985-.78-1.466-1.47-1.466-2.105,0-.568.206-1.018.612-1.335.386-.303.913-.451,1.611-.453l1.791-.004.004-3.906-2.937-.016h-.055c-1.777,0-3.183.501-4.297,1.531-1.133,1.046-1.684,2.347-1.684,3.977,0,.783.152,1.521.451,2.195.306.682.782,1.355,1.416,2,.167.167.406.398.724.686,1.012.93,1.503,1.701,1.503,2.357,0,.514-.209.948-.623,1.291-.402.334-.936.492-1.522.498l-.957-.006h-.744s-.003,4.404-.003,4.404Z" fill="#96badc"/></g><g><polygon points="27.806 46.367 27.806 60.92 22.89 60.92 22.89 46.367 19.057 46.367 19.559 41.445 31.11 41.445 31.639 46.367 27.806 46.367 27.806 46.367" fill="#007bad" fill-rule="evenodd"/><path d="m28.101,61.214h-5.505v-14.553h-3.865l.562-5.511h12.082l.592,5.511h-3.866v14.553Zm-4.917-.589h4.328v-14.553h3.8l-.466-4.333h-11.021l-.442,4.333h3.801v14.553Z" fill="#96badc"/></g><g><polygon points="45.063 55.557 43.746 60.92 33.251 60.92 33.251 41.445 43.693 41.445 44.508 46.622 38.142 46.622 38.142 48.601 42.402 48.601 42.402 53.75 38.142 53.75 38.142 55.557 45.063 55.557 45.063 55.557" fill="#007bad" fill-rule="evenodd"/><path d="m43.977,61.214h-11.02v-20.063h10.988l.908,5.766h-6.416v1.391h4.26v5.737h-4.26v1.219h7.002l-1.462,5.951Zm-10.431-.589h9.969l1.173-4.773h-6.84v-2.396h4.26v-4.56h-4.26v-2.568h6.315l-.722-4.588h-9.895v18.886Z" fill="#96badc"/></g><g><polygon points="54.293 46.367 54.293 60.92 49.376 60.92 49.376 46.367 45.543 46.367 46.045 41.445 57.597 41.445 58.125 46.367 54.293 46.367 54.293 46.367" fill="#007bad" fill-rule="evenodd"/><path d="m54.587,61.214h-5.506v-14.553h-3.864l.562-5.511h12.083l.591,5.511h-3.866v14.553Zm-4.917-.589h4.328v-14.553h3.799l-.465-4.333h-11.021l-.442,4.333h3.801v14.553Z" fill="#96badc"/></g><g><polygon points="71.55 55.557 70.232 60.92 59.738 60.92 59.738 41.445 70.18 41.445 70.995 46.622 64.628 46.622 64.628 48.601 68.889 48.601 68.889 53.75 64.628 53.75 64.628 55.557 71.55 55.557 71.55 55.557" fill="#007bad" fill-rule="evenodd"/><path d="m70.463,61.214h-11.02v-20.063h10.988l.908,5.766h-6.417v1.391h4.26v5.737h-4.26v1.219h7.002l-1.462,5.951Zm-10.431-.589h9.969l1.173-4.773h-6.84v-2.396h4.26v-4.56h-4.26v-2.568h6.316l-.722-4.588h-9.895v18.886Z" fill="#96badc"/></g><g><polygon points="85.462 55.557 83.925 60.92 73.563 60.92 73.563 41.445 78.453 41.445 78.453 55.557 85.462 55.557 85.462 55.557" fill="#007bad" fill-rule="evenodd"/><path d="m84.147,61.214h-10.878v-20.063h5.479v14.112h7.105l-1.706,5.951Zm-10.29-.589h9.845l1.369-4.773h-6.913v-14.112h-4.301v18.886Z" fill="#96badc"/></g><path d="m45.563,26.691c.8-1.318,2.241-2.218,3.691-2.216l7.96.012v-3.104h-7.586c-3.205,0-4.383,2.829-4.065,5.309h0Z" fill="#666" fill-rule="evenodd"/><path d="m45.563,26.691c.799-1.318,2.241-2.218,3.691-2.216l7.96.012v-3.104h-7.586c-3.205,0-4.383,2.829-4.065,5.309h0Z" fill="#666" fill-rule="evenodd"/><path d="m44.999,30.82c-.799-1.317-2.241-2.217-3.69-2.215l-7.96.012v-3.104h7.586c3.205,0,4.382,2.828,4.064,5.308h0Z" fill="#666" fill-rule="evenodd"/><path d="m45.575,31.781c.799-1.318,2.241-2.218,3.691-2.216l7.96.012v-3.104h-7.586c-3.205,0-4.382,2.828-4.065,5.308h0Z" fill="#666" fill-rule="evenodd"/><path d="m45.575,36.808c.799-1.318,2.241-2.218,3.691-2.216l12.979.025v-3.117h-12.605c-3.205,0-4.382,2.828-4.065,5.308h0Z" fill="#666" fill-rule="evenodd"/><path d="m44.999,40.886c-.799-1.317-2.241-2.217-3.69-2.215l-7.96.011v-3.104h7.586c3.205,0,4.382,2.828,4.064,5.308h0Z" fill="#666" fill-rule="evenodd"/><path d="m44.999,35.822c-.799-1.318-2.241-2.218-3.69-2.216l-12.805.022v-3.114h12.431c3.205,0,4.382,2.829,4.064,5.309h0Z" fill="#666" fill-rule="evenodd"/></g></svg>