<?xml version="1.0" encoding="UTF-8"?><svg id="Layer_1" xmlns="http://www.w3.org/2000/svg" viewBox="0 0 2094.198 2094.198"><circle cx="1047.099" cy="1047.099" r="1047.099" fill="#fff"/><g><path d="m916.265,1418.618c-3.447,6.292,4.46,12.649,9.818,7.879,116.176-103.408,309.646-312.518,336.354-605.816,4.491-49.311,31.463-345.457-115.848-418.898-57.93-28.88-152.735-26.195-212.004,30.741-37.282,35.815-60.723,93.378-51.131,146.579,9.765,54.152,47.037,66.499,92.384,136.036.003.007,36.195,55.505,64.237,160.004,32.277,120.279-4.735,326.096-123.811,543.474Z" fill="#333"/><path d="m967.776,866.363c1.18-7.009,11.336-7.104,12.617-.113,15.257,83.281,21.454,204.638-35.236,324.06-24.404,51.411-70.197,147.876-147.505,151.709-49.468,2.453-109.963-33.109-124.047-86.599-11.347-43.095,11.621-81.933,19.69-94.09,40.286-60.713,105.644-53.948,162.87-88.473,43.537-26.267,90.54-81.367,111.612-206.495Z" fill="#a681d8"/><path d="m1301.905,659.012c-1.491-6.949,7.639-10.978,11.5-5.011,58.068,89.715,135.825,246.183,111.5,429.782-11.535,87.064-57.835,269.007-154.72,283.975-46.554,7.195-104.055-24.278-115.869-64.547-11.307-38.535,23.313-71.207,61.113-133.217.003-.007,51.106-83.836,86.599-229.372,14.317-58.708,27.279-153.899-.124-281.609Z" fill="#e59b42"/></g><g><path d="m569.69,1598.314h15.89v109.771h52.602v13.333h-68.493v-123.104Z"/><path d="m732.792,1676.486c0,32.694-22.648,46.94-44.018,46.94-23.927,0-42.374-17.534-42.374-45.479,0-29.589,19.361-46.94,43.835-46.94,25.388,0,42.557,18.447,42.557,45.479Zm-70.137.913c0,19.361,11.142,33.973,26.849,33.973,15.342,0,26.849-14.429,26.849-34.338,0-14.977-7.488-33.972-26.484-33.972s-27.214,17.534-27.214,34.337Z"/><path d="m753.065,1660.597c0-10.411-.183-19.361-.731-27.58h14.064l.548,17.352h.731c4.018-11.872,13.698-19.36,24.475-19.36,1.827,0,3.105.183,4.566.548v15.159c-1.644-.365-3.288-.548-5.479-.548-11.324,0-19.361,8.585-21.553,20.64-.365,2.191-.73,4.748-.73,7.488v47.123h-15.89v-60.821Z"/><path d="m819.914,1680.14c.365,21.735,14.246,30.685,30.319,30.685,11.507,0,18.447-2.009,24.475-4.566l2.74,11.507c-5.662,2.558-15.342,5.479-29.406,5.479-27.214,0-43.47-17.899-43.47-44.565s15.708-47.671,41.461-47.671c28.858,0,36.529,25.388,36.529,41.644,0,3.287-.365,5.845-.548,7.488h-62.1Zm47.123-11.507c.183-10.228-4.201-26.119-22.283-26.119-16.255,0-23.379,14.978-24.657,26.119h46.94Z"/><path d="m902.468,1656.943c0-9.133-.183-16.621-.731-23.927h14.064l.73,14.246h.548c4.931-8.401,13.15-16.255,27.762-16.255,12.055,0,21.187,7.306,25.022,17.717h.365c2.74-4.932,6.21-8.768,9.863-11.507,5.297-4.019,11.142-6.21,19.543-6.21,11.69,0,29.041,7.671,29.041,38.356v52.055h-15.707v-50.046c0-16.985-6.21-27.214-19.179-27.214-9.132,0-16.255,6.758-18.995,14.611-.73,2.192-1.278,5.114-1.278,8.037v54.611h-15.708v-52.968c0-14.064-6.21-24.292-18.447-24.292-10.045,0-17.352,8.036-19.909,16.073-.913,2.374-1.278,5.113-1.278,7.854v53.333h-15.707v-64.475Z"/><path d="m1111.412,1608.177c.183,5.48-3.835,9.862-10.227,9.862-5.662,0-9.681-4.383-9.681-9.862,0-5.662,4.201-10.046,10.046-10.046,6.027,0,9.862,4.384,9.862,10.046Zm-17.899,113.241v-88.401h16.073v88.401h-16.073Z"/><path d="m1136.251,1661.875c0-11.324-.365-20.457-.73-28.858h14.43l.731,15.159h.365c6.575-10.775,16.986-17.168,31.415-17.168,21.37,0,37.443,18.082,37.443,44.931,0,31.781-19.361,47.488-40.183,47.488-11.69,0-21.918-5.114-27.215-13.881h-.365v48.036h-15.891v-95.707Zm15.891,23.561c0,2.374.365,4.566.73,6.575,2.923,11.142,12.602,18.812,24.109,18.812,16.986,0,26.85-13.881,26.85-34.155,0-17.717-9.315-32.876-26.302-32.876-10.959,0-21.186,7.854-24.292,19.908-.548,2.009-1.096,4.384-1.096,6.575v15.16Z"/><path d="m1237.982,1704.98c4.749,3.105,13.15,6.393,21.188,6.393,11.689,0,17.168-5.845,17.168-13.15,0-7.671-4.565-11.872-16.438-16.256-15.891-5.662-23.379-14.429-23.379-25.022,0-14.246,11.507-25.936,30.502-25.936,8.949,0,16.804,2.557,21.735,5.479l-4.019,11.69c-3.471-2.191-9.863-5.113-18.082-5.113-9.498,0-14.795,5.479-14.795,12.055,0,7.306,5.297,10.593,16.804,14.977,15.343,5.845,23.196,13.517,23.196,26.667,0,15.524-12.055,26.483-33.06,26.483-9.68,0-18.63-2.374-24.84-6.027l4.019-12.237Z"/><path d="m1386.474,1697.309c0,9.132.183,17.169.731,24.109h-14.246l-.914-14.429h-.365c-4.2,7.123-13.516,16.438-29.224,16.438-13.881,0-30.502-7.671-30.502-38.721v-51.69h16.073v48.949c0,16.804,5.114,28.128,19.726,28.128,10.776,0,18.265-7.488,21.188-14.611.913-2.375,1.461-5.297,1.461-8.22v-54.246h16.073v64.292Z"/><path d="m1413.138,1656.943c0-9.133-.183-16.621-.73-23.927h14.065l.73,14.246h.548c4.932-8.401,13.15-16.255,27.763-16.255,12.055,0,21.186,7.306,25.023,17.717h.365c2.739-4.932,6.21-8.768,9.863-11.507,5.296-4.019,11.141-6.21,19.543-6.21,11.69,0,29.041,7.671,29.041,38.356v52.055h-15.708v-50.046c0-16.985-6.21-27.214-19.178-27.214-9.133,0-16.256,6.758-18.995,14.611-.73,2.192-1.279,5.114-1.279,8.037v54.611h-15.707v-52.968c0-14.064-6.21-24.292-18.447-24.292-10.046,0-17.352,8.036-19.909,16.073-.913,2.374-1.278,5.113-1.278,7.854v53.333h-15.708v-64.475Z"/></g></svg>